<svg fill="#000000" xmlns="http://www.w3.org/2000/svg"  viewBox="0 0 100 100" width="200px" height="200px"><path d="M 46.970703 14.542969 A 1.0001 1.0001 0 0 0 46.5 14.677734 L 18.5 30.841797 A 1.0001 1.0001 0 0 0 18 31.707031 L 18 63.283203 A 1.0001 1.0001 0 0 0 19.5 64.148438 L 33.5 56.066406 A 1.0001 1.0001 0 0 0 34 55.199219 L 34 40.117188 L 47.5 32.322266 A 1.0001 1.0001 0 0 0 48 31.455078 L 48 15.542969 A 1.0001 1.0001 0 0 0 46.970703 14.542969 z M 53.023438 14.542969 A 1.0001 1.0001 0 0 0 52 15.542969 L 52 31.455078 A 1.0001 1.0001 0 0 0 52.5 32.322266 L 66 40.117188 L 66 55.199219 A 1.0001 1.0001 0 0 0 66.5 56.066406 L 80.5 64.148438 A 1.0001 1.0001 0 0 0 82 63.283203 L 82 31.707031 A 1.0001 1.0001 0 0 0 81.5 30.841797 L 53.5 14.677734 A 1.0001 1.0001 0 0 0 53.023438 14.542969 z M 46 17.273438 L 46 30.419922 L 40.228516 27.146484 L 34.511719 23.90625 L 46 17.273438 z M 54 17.273438 L 65.478516 23.900391 L 59.767578 27.146484 L 54 30.425781 L 54 17.273438 z M 66.482422 24.480469 L 66.492188 24.486328 L 66.5 31.53125 L 66.507812 38.101562 L 54.607422 31.230469 L 60.261719 28.017578 L 66.482422 24.480469 z M 33.505859 24.488281 L 39.734375 28.017578 L 45.398438 31.226562 L 33.5 38.095703 L 33.5 31.539062 L 33.5 24.490234 L 33.505859 24.488281 z M 67.492188 25.0625 L 79.082031 31.755859 L 73.349609 35.064453 L 67.509766 38.435547 L 67.5 31.53125 L 67.492188 25.0625 z M 32.5 25.068359 L 32.5 31.539062 L 32.5 38.441406 L 26.650391 35.064453 L 20.917969 31.755859 L 32.5 25.068359 z M 20.044922 32.40625 L 26.150391 35.929688 L 32.025391 39.322266 A 1.0001 1.0001 0 0 0 32 39.539062 L 32 39.599609 L 26.150391 42.978516 L 20.044922 46.503906 L 20.044922 39.453125 L 20.044922 32.40625 z M 79.955078 32.40625 L 79.955078 39.453125 L 79.955078 46.503906 L 73.849609 42.978516 L 68 39.599609 L 68 39.539062 A 1.0001 1.0001 0 0 0 67.974609 39.320312 L 73.849609 35.929688 L 79.955078 32.40625 z M 32 40.755859 L 32 53.982422 L 26.650391 50.894531 L 20.544922 47.369141 L 26.650391 43.84375 L 32 40.755859 z M 68 40.755859 L 73.349609 43.84375 L 79.455078 47.369141 L 73.349609 50.894531 L 68 53.982422 L 68 40.755859 z M 20.044922 48.236328 L 26.150391 51.759766 L 31.552734 54.880859 L 20.044922 61.525391 L 20.044922 55.283203 L 20.044922 48.236328 z M 79.955078 48.236328 L 79.955078 55.283203 L 79.955078 61.525391 L 68.447266 54.880859 L 73.849609 51.759766 L 79.955078 48.236328 z M 63.732422 59.542969 A 1.0001 1.0001 0 0 0 63.207031 59.677734 L 49.998047 67.304688 L 36.789062 59.677734 A 1.0001 1.0001 0 0 0 36.314453 59.544922 A 1.0001 1.0001 0 0 0 35.789062 59.677734 L 22.082031 67.59375 A 1.0001 1.0001 0 0 0 22.082031 69.324219 L 49.498047 85.154297 A 1.0001 1.0001 0 0 0 50.498047 85.154297 L 77.916016 69.324219 A 1.0001 1.0001 0 0 0 77.916016 67.59375 L 64.208984 59.677734 A 1.0001 1.0001 0 0 0 63.732422 59.542969 z M 63.5 61.818359 L 63.5 68.458984 L 63.5 75.339844 L 63.345703 75.427734 L 57.244141 71.980469 L 51.509766 68.740234 L 63.5 61.818359 z M 36.5 61.820312 L 48.498047 68.746094 L 42.894531 71.982422 L 36.787109 75.507812 L 36.5 75.341797 L 36.5 68.458984 L 36.5 61.820312 z M 35.5 62.154297 L 35.5 68.458984 L 35.5 74.763672 L 24.580078 68.458984 L 35.5 62.154297 z M 64.5 62.15625 L 75.417969 68.458984 L 64.5 74.761719 L 64.5 68.458984 L 64.5 62.15625 z M 50.505859 69.318359 L 56.753906 72.851562 L 62.339844 76.009766 L 50.498047 82.845703 L 50.498047 76.373047 L 50.498047 69.324219 L 50.505859 69.318359 z M 49.498047 69.326172 L 49.498047 76.373047 L 49.498047 82.845703 L 37.789062 76.085938 L 43.394531 72.849609 L 49.498047 69.326172 z"/></svg>